# Blender v2.78 (sub 0) OBJ File: 'building2.blend'
# www.blender.org
mtllib building1.mtl
o Cube
v 1.000000 -3.493826 -1.000000
v 1.000000 -3.493826 1.000000
v -1.000000 -3.493826 1.000000
v -1.000000 -3.493826 -1.000000
v 1.000000 4.350667 -0.999999
v 0.999999 4.357861 1.000001
v -1.000000 4.357861 1.000000
v -1.000000 4.350667 -1.000000
vt 0.7313 0.6418
vt 0.9295 0.6418
vt 0.9295 0.7476
vt 0.7313 0.7476
vt 0.9402 0.5435
vt 0.7420 0.5435
vt 0.7420 0.4377
vt 0.9402 0.4377
vt 0.3916 0.0032
vt 0.3916 0.4184
vt 0.0059 0.4187
vt 0.0059 0.0032
vt 0.0314 0.9051
vt 0.0314 0.4895
vt 0.4796 0.4895
vt 0.4796 0.9051
vt 0.2638 0.4164
vt 0.2638 0.0008
vt 0.5244 0.0012
vt 0.5244 0.4164
vt 0.4573 0.4872
vt 0.4573 0.9024
vt 0.1342 0.9024
vt 0.1342 0.4872
vn 0.0000 -1.0000 0.0000
vn 0.0000 1.0000 -0.0036
vn 1.0000 0.0000 0.0000
vn -0.0000 -0.0000 1.0000
vn -1.0000 -0.0000 -0.0000
vn 0.0000 0.0000 -1.0000
usemtl Material
s off
f 1/1/1 2/2/1 3/3/1 4/4/1
f 5/5/2 8/6/2 7/7/2 6/8/2
f 1/9/3 5/10/3 6/11/3 2/12/3
f 2/13/4 6/14/4 7/15/4 3/16/4
f 3/17/5 7/18/5 8/19/5 4/20/5
f 5/21/6 1/22/6 4/23/6 8/24/6
