# Blender v2.78 (sub 0) OBJ File: 'building1.blend'
# www.blender.org
mtllib building1.mtl
o Cube
v 1.000000 -3.493826 -1.000000
v 1.000000 -3.493826 1.000000
v -1.000000 -3.493826 1.000000
v -1.000000 -3.493826 -1.000000
v 1.000000 3.082047 -0.999999
v 0.999999 3.493826 1.000001
v -1.000000 3.493826 1.000000
v -1.000000 3.082047 -1.000000
vt 0.7278 0.5636
vt 0.9778 0.5636
vt 0.9778 0.6825
vt 0.7278 0.6825
vt 0.9735 0.5451
vt 0.7235 0.5451
vt 0.7235 0.4238
vt 0.9735 0.4238
vt 0.3073 0.4270
vt 0.3073 0.0362
vt 0.5573 0.0118
vt 0.5573 0.4270
vt 0.0222 0.4301
vt 0.0222 0.0148
vt 0.2722 0.0148
vt 0.2722 0.4301
vt 0.5580 0.4449
vt 0.5580 0.8602
vt 0.3080 0.8357
vt 0.3080 0.4449
vt 0.2771 0.4549
vt 0.2771 0.8457
vt 0.0271 0.8457
vt 0.0271 0.4549
vn 0.0000 -1.0000 0.0000
vn 0.0000 0.9795 -0.2017
vn 1.0000 0.0000 0.0000
vn -0.0000 -0.0000 1.0000
vn -1.0000 -0.0000 -0.0000
vn 0.0000 0.0000 -1.0000
usemtl Material
s off
f 1/1/1 2/2/1 3/3/1 4/4/1
f 5/5/2 8/6/2 7/7/2 6/8/2
f 1/9/3 5/10/3 6/11/3 2/12/3
f 2/13/4 6/14/4 7/15/4 3/16/4
f 3/17/5 7/18/5 8/19/5 4/20/5
f 5/21/6 1/22/6 4/23/6 8/24/6
